<svg xmlns="http://www.w3.org/2000/svg" viewBox="0 0 120 120">
  <defs>
    <linearGradient id="gold" x1="0%" y1="0%" x2="100%" y2="100%">
      <stop offset="0%" stop-color="#f8e49c" />
      <stop offset="40%" stop-color="#d9a93d" />
      <stop offset="100%" stop-color="#8f5b07" />
    </linearGradient>
    <linearGradient id="night" x1="0%" y1="0%" x2="100%" y2="100%">
      <stop offset="0%" stop-color="#123b70" />
      <stop offset="55%" stop-color="#0b2246" />
      <stop offset="100%" stop-color="#081426" />
    </linearGradient>
    <radialGradient id="glow" cx="50%" cy="38%" r="58%">
      <stop offset="0%" stop-color="#2cd4e8" stop-opacity="0.9" />
      <stop offset="100%" stop-color="#2cd4e8" stop-opacity="0" />
    </radialGradient>
  </defs>
  <path d="M60 7c-16.5 0-30 10.3-35.2 26.2l-7.8 3.9 5.4 5.2a45.8 45.8 0 0 0-.8 8.5v23.6c0 18.3 12.7 33.3 38.4 38.5 25.7-5.2 38.4-20.2 38.4-38.5V50.8c0-3-.3-5.9-.8-8.5l5.4-5.2-7.8-3.9C90 17.3 76.5 7 60 7Z" fill="url(#gold)"/>
  <path d="M60 14.5c-14.1 0-25.6 8.7-30 22.1l-3.8 2 2.8 2.7c-.4 2-.6 4.1-.6 6.2v26.3c0 14.9 10.3 27.4 31.6 32 21.3-4.6 31.6-17.1 31.6-32V47.5c0-2.1-.2-4.2-.6-6.2l2.8-2.7-3.8-2c-4.4-13.4-15.9-22.1-30-22.1Z" fill="url(#night)"/>
  <circle cx="60" cy="49" r="30" fill="url(#glow)" opacity="0.75"/>
  <g fill="url(#gold)">
    <path d="M42 36.5c8.6-10.5 22.1-11.7 33.7-7.3-8 0-15.1 2.9-19.7 10.1-5.4 8.3-4.1 18.2 4 24.9-5.7 1.8-11 .9-15.4-2.8-8.6-7.3-9.9-16.8-2.6-24.9Z"/>
    <circle cx="63.5" cy="36.5" r="3.6"/>
    <path d="M59.5 41.2c3.4-.8 6.2-.2 8.6 1.8l-1.7 3.4-3.3-1.1 1.2 7.3 7.8 5-2.6 3.4-8.5-4.9-1.5-8.2-2.3 3.4-4.1 5.5-2.9-2.2 4.2-6.8c1.4-2.2 2.6-4.7 5.1-5.6Z"/>
    <path d="M72.7 43.2c2.4 0 4.8.8 6.3 2.4l-1.8 2.3c-1.2-.9-2.7-1.4-4.1-1.5l-.4-3.2Z"/>
    <path d="M74.5 52.2h3.2v17.3h-3.2z"/>
    <path d="M55 59.2 50.1 74h4.5l2.7-8.4 6.5 7.5 3.7-2.7-8.9-11.2z"/>
  </g>
  <g fill="#f6e9b3" opacity="0.95">
    <circle cx="46.5" cy="27.5" r="1.3"/>
    <circle cx="73.5" cy="24.8" r="1.1"/>
    <circle cx="79.5" cy="33.6" r="1.4"/>
    <circle cx="83.2" cy="40.7" r="1.1"/>
    <circle cx="42.6" cy="46.4" r="1"/>
    <circle cx="75.5" cy="62.4" r="1.3"/>
    <circle cx="50.8" cy="69.2" r="1"/>
  </g>
</svg>
